<svg width="29" height="30" viewBox="0 0 29 30" fill="none" xmlns="http://www.w3.org/2000/svg">
<g clip-path="url(#clip0_108:3467)">
<path d="M6.44531 10.8984C6.12188 10.8984 5.85938 11.1609 5.85938 11.4844C5.85938 11.8078 6.12188 12.0703 6.44531 12.0703C6.76875 12.0703 7.03125 11.8078 7.03125 11.4844C7.03125 11.1609 6.76875 10.8984 6.44531 10.8984Z" fill="#212529"/>
<path d="M22.8516 2.34375C22.528 2.34375 22.2656 2.60607 22.2656 2.92969C22.2656 3.2533 22.528 3.51562 22.8516 3.51562C23.8208 3.51562 24.6094 4.30418 24.6094 5.27344C24.6094 5.59705 24.8718 5.85938 25.1953 5.85938C25.5189 5.85938 25.7812 5.59705 25.7812 5.27344C25.7812 3.65801 24.467 2.34375 22.8516 2.34375Z" fill="#212529"/>
<path d="M22.8516 21.7969C22.528 21.7969 22.2656 22.0592 22.2656 22.3828C22.2656 22.7064 22.528 22.9688 22.8516 22.9688C23.8208 22.9688 24.6094 23.7573 24.6094 24.7266C24.6094 25.0502 24.8718 25.3125 25.1953 25.3125C25.5189 25.3125 25.7812 25.0502 25.7812 24.7266C25.7812 23.1111 24.467 21.7969 22.8516 21.7969Z" fill="#212529"/>
<path d="M22.8516 19.4531C21.1689 19.4531 19.5916 20.2636 18.6045 21.6015L12.3012 17.6939C12.6877 16.8538 12.8906 15.9332 12.8906 15C12.8906 14.0668 12.6877 13.1462 12.3012 12.306L18.6045 8.39848C19.5915 9.73641 21.1689 10.5469 22.8516 10.5469C25.7593 10.5469 28.125 8.18121 28.125 5.27344C28.125 2.36566 25.7593 0 22.8516 0C19.9438 0 17.5781 2.36566 17.5781 5.27344C17.5781 6.00164 17.7295 6.721 18.0182 7.38311L11.7158 11.2902C10.5159 9.58951 8.54789 8.55469 6.44531 8.55469C2.89137 8.55469 0 11.4461 0 15C0 18.5539 2.89137 21.4453 6.44531 21.4453C8.54801 21.4453 10.5162 20.4105 11.7158 18.7098L18.0182 22.6169C17.7295 23.279 17.5781 23.9984 17.5781 24.7266C17.5781 27.6343 19.9438 30 22.8516 30C25.7593 30 28.125 27.6343 28.125 24.7266C28.125 21.8188 25.7593 19.4531 22.8516 19.4531ZM22.8516 1.17188C25.1132 1.17188 26.9531 3.01184 26.9531 5.27344C26.9531 7.53504 25.1132 9.375 22.8516 9.375C21.3844 9.375 20.0196 8.58311 19.2895 7.30846C18.9366 6.69205 18.75 5.9884 18.75 5.27344C18.75 3.01184 20.59 1.17188 22.8516 1.17188ZM11.0251 17.6163C10.0869 19.2553 8.33203 20.2734 6.44531 20.2734C3.53754 20.2734 1.17188 17.9078 1.17188 15C1.17188 12.0922 3.53754 9.72656 6.44531 9.72656C8.33203 9.72656 10.0869 10.7447 11.0251 12.3837C11.0251 12.3837 11.0252 12.3838 11.0252 12.384C11.4789 13.1755 11.7188 14.0801 11.7188 15C11.7188 15.9199 11.4789 16.8245 11.0251 17.6163ZM22.8516 28.8281C20.59 28.8281 18.75 26.9882 18.75 24.7266C18.75 24.0116 18.9366 23.3079 19.2895 22.6916C20.0196 21.4169 21.3844 20.625 22.8516 20.625C25.1132 20.625 26.9531 22.465 26.9531 24.7266C26.9531 26.9882 25.1132 28.8281 22.8516 28.8281Z" fill="#212529"/>
<path d="M9.02373 11.8118C8.7723 11.6081 8.4034 11.6468 8.19967 11.8982C7.99594 12.1497 8.03467 12.5186 8.28609 12.7224C8.97809 13.283 9.375 14.1132 9.375 14.9999C9.375 16.6153 8.06074 17.9296 6.44531 17.9296C6.12176 17.9296 5.85938 18.1919 5.85938 18.5155C5.85938 18.8391 6.12176 19.1015 6.44531 19.1015C8.70691 19.1015 10.5469 17.2615 10.5469 14.9999C10.5469 13.7581 9.9917 12.596 9.02373 11.8118Z" fill="#212529"/>
</g>
<defs>
<clipPath id="clip0_108:3467">
<rect width="28.125" height="30" fill="white"/>
</clipPath>
</defs>
</svg>
