<svg width="48" height="48" viewBox="0 0 48 48" fill="none" xmlns="http://www.w3.org/2000/svg">
<path d="M45.5625 46.125H44.625V30.9375C44.625 30.4198 44.2052 30 43.6875 30H38.0625C37.5448 30 37.125 30.4198 37.125 30.9375V46.125H33.375V19.6875C33.375 19.1698 32.9552 18.75 32.4375 18.75H26.8125C26.2948 18.75 25.875 19.1698 25.875 19.6875V46.125H22.125V27.1875C22.125 26.6698 21.7052 26.25 21.1875 26.25H15.5625C15.0448 26.25 14.625 26.6698 14.625 27.1875V46.125H10.875V14.0625C10.875 13.5448 10.4552 13.125 9.9375 13.125H4.3125C3.79481 13.125 3.375 13.5448 3.375 14.0625V46.125H2.4375C1.91981 46.125 1.5 46.5448 1.5 47.0625C1.5 47.5802 1.91981 48 2.4375 48H45.5625C46.0802 48 46.5 47.5802 46.5 47.0625C46.5 46.5448 46.0802 46.125 45.5625 46.125ZM9 46.125H5.25V15H9V46.125ZM20.25 46.125H16.5V28.125H20.25V46.125ZM31.5 46.125H27.75V20.625H31.5V46.125ZM42.75 46.125H39V31.875H42.75V46.125Z" fill="#212529"/>
<path d="M40.875 16.875C40.1941 16.875 39.541 17.0558 38.9699 17.3941L32.8559 11.2801C33.1942 10.709 33.375 10.0559 33.375 9.375C33.375 7.30725 31.6927 5.625 29.625 5.625C27.5573 5.625 25.875 7.30725 25.875 9.375C25.875 9.79903 25.9482 10.2143 26.0855 10.608L20.876 14.0811C20.1964 13.4719 19.3106 13.125 18.375 13.125C17.7832 13.125 17.2231 13.2634 16.7248 13.5086L10.198 5.89528C10.624 5.28684 10.875 4.54744 10.875 3.75C10.875 1.68225 9.19275 0 7.125 0C5.05725 0 3.375 1.68225 3.375 3.75C3.375 5.81775 5.05725 7.5 7.125 7.5C7.71684 7.5 8.27691 7.36162 8.77519 7.11637L15.302 14.7297C14.876 15.3382 14.625 16.0776 14.625 16.875C14.625 18.9427 16.3073 20.625 18.375 20.625C20.4427 20.625 22.125 18.9427 22.125 16.875C22.125 16.451 22.0518 16.0358 21.9145 15.642L27.124 12.1689C27.8036 12.7781 28.6894 13.125 29.625 13.125C30.3059 13.125 30.959 12.9442 31.5301 12.6059L37.6441 18.7199C37.3058 19.291 37.125 19.9441 37.125 20.625C37.125 22.6927 38.8073 24.375 40.875 24.375C42.9427 24.375 44.625 22.6927 44.625 20.625C44.625 18.5573 42.9427 16.875 40.875 16.875ZM7.125 5.625C6.09113 5.625 5.25 4.78387 5.25 3.75C5.25 2.71613 6.09113 1.875 7.125 1.875C8.15887 1.875 9 2.71613 9 3.75C9 4.78387 8.15887 5.625 7.125 5.625ZM18.375 18.75C17.3411 18.75 16.5 17.9089 16.5 16.875C16.5 15.8411 17.3411 15 18.375 15C19.4138 15 20.25 15.8437 20.25 16.875C20.25 17.9089 19.4089 18.75 18.375 18.75ZM29.625 11.25C28.5862 11.25 27.75 10.4063 27.75 9.375C27.75 8.34113 28.5911 7.5 29.625 7.5C30.6589 7.5 31.5 8.34113 31.5 9.375C31.5 10.4106 30.6606 11.25 29.625 11.25ZM40.875 22.5C39.8411 22.5 39 21.6589 39 20.625C39 19.5894 39.8394 18.75 40.875 18.75C41.9089 18.75 42.75 19.5911 42.75 20.625C42.75 21.6589 41.9089 22.5 40.875 22.5Z" fill="#212529"/>
</svg>
