<svg width="48" height="48" viewBox="0 0 48 48" fill="none" xmlns="http://www.w3.org/2000/svg">
<g clip-path="url(#clip0_107:3179)">
<path d="M44.9838 3.01644C40.9622 -1.00515 34.4185 -1.00515 30.3968 3.01644L16.7066 16.7067L3.01626 30.397C-1.00542 34.4188 -1.00542 40.9624 3.01626 44.984C7.03757 49.0054 13.5814 49.0058 17.6032 44.984L31.2935 31.2937L44.9838 17.6034C49.0054 13.5818 49.0054 7.03812 44.9838 3.01644ZM29.9673 29.9678L16.277 43.6581C12.9867 46.9486 7.63269 46.9486 4.34226 43.6581C1.05192 40.3678 1.05192 35.0138 4.34226 31.7235L13.8389 22.2266C13.5541 23.8559 13.6611 25.556 14.188 27.1819L6.9951 34.3757C5.16463 36.2048 5.16416 39.1759 6.99472 41.0053C8.82397 42.8358 11.795 42.8362 13.6246 41.0055L21.2118 33.4183C21.2203 33.4104 21.2287 33.4024 21.2369 33.3941L27.3149 27.3152C29.1444 25.4857 29.146 22.5155 27.3151 20.6858C26.59 19.9603 25.6644 19.5022 24.6626 19.3611L27.6383 16.3853C28.4994 16.7962 29.2816 17.3472 29.9674 18.0331C30.7972 18.8629 31.4332 19.8329 31.8578 20.9162C33.0826 24.0418 32.3406 27.5947 29.9673 29.9678ZM14.9922 29.0298C15.4531 29.8553 16.0263 30.6135 16.7066 31.2937C17.3868 31.974 18.1449 32.5473 18.9698 33.0081L12.2982 39.6796C11.202 40.7765 9.41816 40.7773 8.32082 39.6792C7.22394 38.5831 7.22319 36.7991 8.321 35.7019L14.9922 29.0298ZM22.0113 25.9889C20.9143 24.8919 20.9132 23.1089 22.0118 22.011C22.0211 22.0016 22.0554 21.9674 22.046 21.9768C23.1157 20.9316 24.9012 20.9233 25.989 22.0117C27.0861 23.1082 27.0863 24.8913 25.9887 25.989C24.8915 27.0862 23.1084 27.0867 22.0113 25.9889ZM31.2935 16.7068C30.6133 16.0267 29.8554 15.4535 29.0305 14.9927L35.7018 8.32099C36.798 7.22402 38.5819 7.22337 39.6792 8.32137C40.7761 9.41749 40.7768 11.2015 39.679 12.2987L33.0078 18.9708C32.5469 18.1452 31.9737 17.387 31.2935 16.7068ZM43.6577 16.2773L34.1611 25.774C34.4459 24.1447 34.3389 22.4447 33.8121 20.8188L41.0049 13.625C42.835 11.7961 42.8361 8.82499 41.0053 6.99527C39.1761 5.16481 36.2051 5.16424 34.3754 6.99509C33.8694 7.50115 21.1602 20.2113 20.7572 20.6143C18.8092 22.4876 18.8735 25.5035 20.685 27.3149C21.4116 28.0419 22.3361 28.4998 23.338 28.6402L20.3629 31.6159C19.5013 31.205 18.7187 30.6538 18.0326 29.9677C17.2029 29.138 16.5669 28.1679 16.1422 27.0847C14.9173 23.9591 15.6595 20.4062 18.0326 18.0331L31.7229 4.34262C35.0133 1.05219 40.3672 1.05219 43.6577 4.34262C46.948 7.63296 46.948 12.9869 43.6577 16.2773Z" fill="#212529"/>
<path d="M14.0539 12.7278L10.0762 8.7501C9.70998 8.38392 9.11626 8.38392 8.74998 8.7501C8.38379 9.11629 8.38379 9.71001 8.74998 10.0763L12.7277 14.054C13.0939 14.4202 13.6877 14.4203 14.0539 14.054C14.42 13.6878 14.42 13.0941 14.0539 12.7278Z" fill="#212529"/>
<path d="M10.2364 17.0612H4.61029C4.09251 17.0612 3.67261 17.481 3.67261 17.9988C3.67261 18.5167 4.09242 18.9365 4.61029 18.9365H10.2364C10.7543 18.9365 11.1741 18.5167 11.1741 17.9988C11.1741 17.481 10.7543 17.0612 10.2364 17.0612Z" fill="#212529"/>
<path d="M17.9987 3.67273C17.4808 3.67273 17.061 4.09254 17.061 4.61042V10.2365C17.061 10.7544 17.4808 11.1742 17.9987 11.1742C18.5166 11.1742 18.9364 10.7544 18.9364 10.2365V4.61042C18.9364 4.09254 18.5166 3.67273 17.9987 3.67273Z" fill="#212529"/>
<path d="M39.2499 37.9237L35.2722 33.946C34.9059 33.5798 34.3122 33.5798 33.946 33.946C33.5798 34.3122 33.5798 34.9059 33.946 35.2722L37.9237 39.2499C38.2899 39.6161 38.8836 39.6161 39.2499 39.2499C39.616 38.8837 39.616 38.29 39.2499 37.9237Z" fill="#212529"/>
<path d="M29.9074 36.8258C29.3895 36.8258 28.9697 37.2456 28.9697 37.7635V43.3896C28.9697 43.9075 29.3895 44.3273 29.9074 44.3273C30.4253 44.3273 30.8451 43.9075 30.8451 43.3896V37.7635C30.8451 37.2456 30.4253 36.8258 29.9074 36.8258Z" fill="#212529"/>
<path d="M43.3895 28.9698H37.7634C37.2455 28.9698 36.8257 29.3897 36.8257 29.9075C36.8257 30.4254 37.2455 30.8452 37.7634 30.8452H43.3895C43.9074 30.8452 44.3272 30.4254 44.3272 29.9075C44.3272 29.3897 43.9074 28.9698 43.3895 28.9698Z" fill="#212529"/>
</g>
<defs>
<clipPath id="clip0_107:3179">
<rect width="48" height="48" fill="white"/>
</clipPath>
</defs>
</svg>
