<svg width="32" height="30" viewBox="0 0 32 30" fill="none" xmlns="http://www.w3.org/2000/svg">
<path d="M19.75 16.25C19.405 16.25 19.125 16.53 19.125 16.875C19.125 17.22 19.405 17.5 19.75 17.5C20.095 17.5 20.375 17.22 20.375 16.875C20.375 16.53 20.095 16.25 19.75 16.25Z" fill="#212529"/>
<path d="M31.375 25H0.625C0.279813 25 0 25.2799 0 25.625V29.375C0 29.7201 0.279813 30 0.625 30H31.375C31.7202 30 32 29.7201 32 29.375V25.625C32 25.2799 31.7202 25 31.375 25ZM22.875 28.75H1.25V26.25H22.875V28.75ZM30.75 28.75H24.125V26.25H30.75V28.75Z" fill="#212529"/>
<path d="M18.0276 8.00006C18.6985 7.42644 19.125 6.57487 19.125 5.625C19.125 3.90188 17.7231 2.5 16 2.5C14.2769 2.5 12.875 3.90188 12.875 5.625C12.875 6.57487 13.3015 7.42644 13.9724 8.00006C12.5784 8.73244 11.625 10.1941 11.625 11.875V13.125C11.625 13.4701 11.9048 13.75 12.25 13.75H19.75C20.0952 13.75 20.375 13.4701 20.375 13.125V11.875C20.375 10.1941 19.4216 8.73244 18.0276 8.00006ZM16 3.75C17.0339 3.75 17.875 4.59113 17.875 5.625C17.875 6.65887 17.0339 7.5 16 7.5C14.9661 7.5 14.125 6.65887 14.125 5.625C14.125 4.59113 14.9661 3.75 16 3.75ZM19.125 12.5H12.875V11.875C12.875 10.1519 14.2769 8.75 16 8.75C17.7231 8.75 19.125 10.1519 19.125 11.875V12.5Z" fill="#212529"/>
<path d="M22.25 0H9.75C8.71613 0 7.875 0.841125 7.875 1.875V18.125C7.875 19.1589 8.71613 20 9.75 20H13.1655L15.48 23.4717C15.5959 23.6456 15.7911 23.75 16 23.75C16.2089 23.75 16.4041 23.6456 16.52 23.4717L18.8345 20H22.25C23.2839 20 24.125 19.1589 24.125 18.125V1.875C24.125 0.841125 23.2839 0 22.25 0ZM22.875 18.125C22.875 18.4696 22.5946 18.75 22.25 18.75H18.5C18.2911 18.75 18.0959 18.8544 17.98 19.0283L16 21.9983L14.02 19.0283C13.9041 18.8544 13.7089 18.75 13.5 18.75H9.75C9.40538 18.75 9.125 18.4696 9.125 18.125V1.875C9.125 1.53038 9.40538 1.25 9.75 1.25H22.25C22.5946 1.25 22.875 1.53038 22.875 1.875V18.125Z" fill="#212529"/>
<path d="M17.25 16.25H12.25C11.9048 16.25 11.625 16.5299 11.625 16.875C11.625 17.2201 11.9048 17.5 12.25 17.5H17.25C17.5952 17.5 17.875 17.2201 17.875 16.875C17.875 16.5299 17.5952 16.25 17.25 16.25Z" fill="#212529"/>
</svg>
