<svg width="30" height="30" viewBox="0 0 30 30" fill="none" xmlns="http://www.w3.org/2000/svg">
<g clip-path="url(#clip0_108:3529)">
<path d="M15 22.9688C14.6766 22.9688 14.4141 23.2313 14.4141 23.5547C14.4141 23.8781 14.6766 24.1406 15 24.1406C15.3234 24.1406 15.5859 23.8781 15.5859 23.5547C15.5859 23.2313 15.3234 22.9688 15 22.9688Z" fill="#212529"/>
<path d="M3.28132 9.37549H0.586C0.262444 9.37549 6.10352e-05 9.63787 6.10352e-05 9.96143C6.10352e-05 10.285 0.262386 10.5474 0.586 10.5474H3.28132C3.60487 10.5474 3.86726 10.285 3.86726 9.96143C3.86726 9.63787 3.60487 9.37549 3.28132 9.37549Z" fill="#212529"/>
<path d="M29.414 9.37549H26.7187C26.3951 9.37549 26.1328 9.63787 26.1328 9.96143C26.1328 10.285 26.3951 10.5474 26.7187 10.5474H29.414C29.7376 10.5474 29.9999 10.285 29.9999 9.96143C29.9999 9.63787 29.7376 9.37549 29.414 9.37549Z" fill="#212529"/>
<path d="M5.35851 15.5279C5.19667 15.2478 4.83843 15.1516 4.55811 15.3135L2.52842 16.4853C2.24817 16.6471 2.15213 17.0055 2.31397 17.2857C2.47633 17.5669 2.83493 17.6615 3.11436 17.5002L5.14405 16.3283C5.42431 16.1665 5.52034 15.8082 5.35851 15.5279Z" fill="#212529"/>
<path d="M27.6861 2.63681C27.5243 2.35661 27.166 2.26052 26.8857 2.42236L24.856 3.59423C24.5757 3.75607 24.4797 4.11437 24.6415 4.39462C24.8039 4.67576 25.1625 4.77045 25.4419 4.60908L27.4716 3.4372C27.7519 3.27537 27.8479 2.91706 27.6861 2.63681Z" fill="#212529"/>
<path d="M5.14405 3.59422L3.11436 2.42234C2.83405 2.26056 2.47581 2.35654 2.31397 2.6368C2.15213 2.91705 2.24817 3.27535 2.52842 3.43719L4.55811 4.60907C4.83784 4.77055 5.19632 4.67546 5.35851 4.39461C5.52034 4.1143 5.42431 3.756 5.14405 3.59422Z" fill="#212529"/>
<path d="M27.4716 16.4848L25.4419 15.313C25.1616 15.1511 24.8034 15.2472 24.6415 15.5274C24.4797 15.8077 24.5757 16.166 24.856 16.3278L26.8857 17.4997C27.1654 17.6612 27.5239 17.5661 27.6861 17.2852C27.8479 17.005 27.7519 16.6467 27.4716 16.4848Z" fill="#212529"/>
<path d="M16.9008 9.84431C17.5298 9.30653 17.9296 8.50819 17.9296 7.61768C17.9296 6.00225 16.6154 4.68799 14.9999 4.68799C13.3845 4.68799 12.0703 6.00225 12.0703 7.61768C12.0703 8.50819 12.4701 9.30653 13.0991 9.84431C11.7923 10.5309 10.8984 11.9011 10.8984 13.477V14.6489C10.8984 14.9724 11.1608 15.2348 11.4844 15.2348H18.5156C18.8391 15.2348 19.1015 14.9724 19.1015 14.6489V13.477C19.1015 11.9011 18.2077 10.5309 16.9008 9.84431ZM14.9999 5.85987C15.9692 5.85987 16.7578 6.64842 16.7578 7.61768C16.7578 8.58694 15.9692 9.3755 14.9999 9.3755C14.0307 9.3755 13.2421 8.58694 13.2421 7.61768C13.2421 6.64842 14.0307 5.85987 14.9999 5.85987ZM17.9296 14.0629H12.0703V13.477C12.0703 11.8616 13.3846 10.5473 15 10.5473C16.6154 10.5473 17.9297 11.8616 17.9297 13.477V14.0629H17.9296Z" fill="#212529"/>
<path d="M13.8656 0.0629315C9.47541 0.549143 5.83967 4.02007 5.16332 8.36809C4.56794 12.1946 6.16439 15.7765 9.03174 17.9257C9.46692 18.2521 9.72666 18.7718 9.72666 19.3161C9.72666 19.8234 9.72666 21.64 9.72666 22.3829C9.72666 22.8325 9.89653 23.2431 10.1752 23.5542C9.88528 23.877 9.72661 24.2896 9.72661 24.7266C9.72661 25.5019 10.2313 26.161 10.9291 26.394C11.1699 28.4041 12.8787 30.0001 15 30.0001C17.0935 30.0001 18.8245 28.4231 19.0705 26.3949C19.7592 26.1664 20.2734 25.5146 20.2734 24.7266C20.2734 24.2767 20.1034 23.866 19.8244 23.5547C20.1033 23.2435 20.2734 22.8327 20.2734 22.3829C20.2734 21.8175 20.2734 20.0952 20.2734 19.3161C20.2734 18.7714 20.5313 18.2533 20.9633 17.9301C22.1765 17.0218 23.1819 15.832 23.8707 14.4893C24.5942 13.0793 24.9609 11.5558 24.9609 9.96108C24.9608 4.08528 19.8725 -0.60164 13.8656 0.0629315ZM15 28.8282C13.5795 28.8282 12.4004 27.8232 12.1288 26.4786H17.8707C17.5985 27.8142 16.4148 28.8282 15 28.8282ZM19.1016 22.3829C19.1016 22.706 18.8387 22.9689 18.5156 22.9689H17.3437C17.0202 22.9689 16.7578 23.2312 16.7578 23.5548C16.7578 23.8784 17.0202 24.1407 17.3437 24.1407H18.5156C18.8387 24.1407 19.1016 24.4036 19.1016 24.7267C19.1016 25.0501 18.8391 25.3126 18.5156 25.3126H11.4844C11.1613 25.3126 10.8985 25.0498 10.8985 24.7267C10.8985 24.4032 11.1609 24.1407 11.4844 24.1407H12.6563C12.9799 24.1407 13.2422 23.8784 13.2422 23.5548C13.2422 23.2312 12.9799 22.9689 12.6563 22.9689H11.4844C11.1613 22.9689 10.8985 22.706 10.8985 22.3829V21.797H19.1016V22.3829ZM20.2611 16.992C19.535 17.5352 19.1016 18.4041 19.1016 19.3162V20.6252H10.8985V19.3162C10.8985 18.405 10.4634 17.5348 9.73469 16.9882C7.12369 15.031 5.81576 11.7971 6.32119 8.54826C6.91469 4.73321 10.1419 1.65446 13.9945 1.22778C19.4173 0.627425 23.789 4.89247 23.789 9.96119C23.789 12.7508 22.5031 15.3135 20.2611 16.992Z" fill="#212529"/>
</g>
<defs>
<clipPath id="clip0_108:3529">
<rect width="30" height="30" fill="white"/>
</clipPath>
</defs>
</svg>
