<svg width="41" height="30" viewBox="0 0 41 30" fill="none" xmlns="http://www.w3.org/2000/svg">
<g clip-path="url(#clip0_107:3328)">
<path d="M10.3027 9.47363C9.86687 9.47363 9.51318 9.82732 9.51318 10.2631C9.51318 10.6989 9.86687 11.0526 10.3027 11.0526C10.7384 11.0526 11.0921 10.6989 11.0921 10.2631C11.0921 9.82732 10.7384 9.47363 10.3027 9.47363Z" fill="#212529"/>
<path d="M30.9869 9.47368V2.36842C30.9869 1.05987 29.927 0 28.6185 0C27.3125 0 26.2501 1.06247 26.2501 2.36842V3.03718C22.478 5.34789 18.1439 5.99471 14.374 6.31579H6.35534C2.87881 6.31579 0.0395508 9.12797 0.0395508 12.6316C0.0395508 15.5231 2.03297 18.0373 4.77639 18.746V26.8421C4.77639 28.5834 6.19302 30 7.93429 30H10.3027C12.5286 30 13.5259 27.1817 11.7846 25.7836C11.3446 25.4303 11.0922 24.7857 11.0922 24.0151V18.9474H14.3714C18.1944 19.278 22.2043 20.7609 26.2955 23.3561C26.5108 24.4419 27.4704 25.2632 28.6185 25.2632C29.9244 25.2632 30.9869 24.2007 30.9869 22.8947V15.7895C32.7315 15.7895 34.1448 14.3765 34.1448 12.6316C34.1448 10.8903 32.7282 9.47368 30.9869 9.47368ZM10.3027 28.4211H7.93429C7.06366 28.4211 6.35534 27.7127 6.35534 26.8421V18.9474H9.51323V24.015C9.51323 25.2669 9.98084 26.3602 10.796 27.0148C11.3756 27.4803 11.048 28.4211 10.3027 28.4211ZM13.6185 17.3684H6.35534C6.13145 17.3684 5.90589 17.3525 5.68421 17.3209C3.36639 16.9934 1.6185 14.9774 1.6185 12.6316C1.6185 10.0186 3.73263 7.89474 6.35534 7.89474H13.6185V17.3684ZM26.2501 21.4734C22.4899 19.2249 18.7808 17.8731 15.1974 17.4456V7.82692C18.7172 7.49266 22.6505 6.8265 26.2501 4.86055V21.4734ZM29.408 22.8947C29.408 23.3301 29.0538 23.6842 28.6185 23.6842C28.1832 23.6842 27.829 23.3301 27.829 22.8947V2.36842C27.829 1.93311 28.1832 1.57895 28.6185 1.57895C29.0543 1.57895 29.408 1.93255 29.408 2.36842V22.8947ZM30.9869 14.2105V11.0526C31.8575 11.0526 32.5659 11.7609 32.5659 12.6316C32.5659 13.5036 31.859 14.2105 30.9869 14.2105Z" fill="#212529"/>
<path d="M39.6711 11.0527H36.5132C36.0773 11.0527 35.7238 11.4063 35.7238 11.8422C35.7238 12.2782 36.0773 12.6317 36.5132 12.6317H39.6711C40.1071 12.6317 40.4606 12.2782 40.4606 11.8422C40.4606 11.4063 40.1071 11.0527 39.6711 11.0527Z" fill="#212529"/>
<path d="M37.8165 1.9737C37.5986 1.59625 37.1157 1.4667 36.7381 1.68475L34.0034 3.2637C33.6258 3.48175 33.4964 3.96451 33.7144 4.34212C33.9332 4.72091 34.4164 4.84848 34.7929 4.63106L37.5276 3.05212C37.9052 2.83407 38.0345 2.3513 37.8165 1.9737Z" fill="#212529"/>
<path d="M37.5276 20.6321L34.7929 19.0532C34.4152 18.8351 33.9325 18.9646 33.7144 19.3421C33.4964 19.7197 33.6258 20.2025 34.0034 20.4205L36.7381 21.9995C36.8625 22.0713 36.9982 22.1054 37.1321 22.1054C37.4049 22.1054 37.6703 21.9638 37.8166 21.7106C38.0346 21.3329 37.9052 20.8502 37.5276 20.6321Z" fill="#212529"/>
<path d="M7.14476 9.47363H6.35528C4.61402 9.47363 3.19739 10.8903 3.19739 12.6315C3.19739 13.0675 3.55091 13.421 3.98686 13.421C4.42281 13.421 4.77634 13.0675 4.77634 12.6315C4.77634 11.7609 5.48465 11.0526 6.35528 11.0526H7.14476C7.5807 11.0526 7.93423 10.6991 7.93423 10.2631C7.93423 9.82716 7.5807 9.47363 7.14476 9.47363Z" fill="#212529"/>
</g>
<defs>
<clipPath id="clip0_107:3328">
<rect width="40.5" height="30" fill="white"/>
</clipPath>
</defs>
</svg>
