<svg width="31" height="31" viewBox="0 0 31 31" fill="none" xmlns="http://www.w3.org/2000/svg">
<g clip-path="url(#clip0)">
<path d="M28.2466 12.5684H26.1372V9.63869C26.1372 8.66943 25.3487 7.88088 24.3794 7.88088H22.7636L26.7942 3.85027C27.4795 3.16496 27.4795 2.04986 26.7942 1.36455C26.1088 0.679294 24.9937 0.679236 24.3084 1.36455L16.7622 8.91131V6.12306C16.7622 5.15381 15.9737 4.36525 15.0044 4.36525H11.4888C10.5195 4.36525 9.73096 5.15381 9.73096 6.12306V7.99912C9.34775 7.92119 8.956 7.88088 8.55908 7.88088C5.74506 7.88088 3.36352 9.86205 2.81725 12.5684H1.76221C0.792949 12.5684 0.00439453 13.3569 0.00439453 14.3262V15.8496C0.00439453 16.6435 0.533555 17.3158 1.2576 17.5333L3.35432 29.4065C3.50648 30.2427 4.23387 30.8496 5.08395 30.8496H24.925C25.775 30.8496 26.5024 30.2427 26.6551 29.4035L28.7513 17.5333C29.4752 17.3158 30.0044 16.6435 30.0044 15.8496V14.3262C30.0044 13.3569 29.2158 12.5684 28.2466 12.5684ZM24.3794 9.05275C24.7025 9.05275 24.9653 9.3156 24.9653 9.63869V12.5684H18.076L21.5916 9.05275H24.3794ZM25.1371 2.19324C25.3654 1.96484 25.7371 1.96478 25.9655 2.19324C26.1939 2.42158 26.1939 2.79324 25.9655 3.02164C25.9655 3.02164 15.9315 13.0556 15.4186 13.5685C15.1894 13.7976 14.8194 13.7977 14.5902 13.5685C14.3612 13.3395 14.361 12.9693 14.5901 12.7402L25.1371 2.19324ZM10.9028 6.12306C10.9028 5.79992 11.1657 5.53713 11.4888 5.53713H15.0044C15.3275 5.53713 15.5903 5.79998 15.5903 6.12306V10.0832L14.029 11.644C13.4704 10.1957 12.3461 9.00002 10.9028 8.36908V6.12306ZM8.55908 9.05275C10.7384 9.05275 12.5732 10.5433 13.0983 12.5684H4.01854C4.54078 10.5242 6.38936 9.05275 8.55908 9.05275ZM28.8325 15.8496C28.8325 16.1727 28.5697 16.4356 28.2466 16.4356H17.3481C17.0245 16.4356 16.7622 16.6979 16.7622 17.0215C16.7622 17.3451 17.0245 17.6074 17.3481 17.6074H27.5481L25.5015 29.1967C25.4508 29.4754 25.2083 29.6778 24.9248 29.6778H5.08389C4.80047 29.6778 4.55795 29.4754 4.50773 29.1997L2.4607 17.6074H12.6606C12.9843 17.6074 13.2466 17.3451 13.2466 17.0215C13.2466 16.6979 12.9843 16.4356 12.6606 16.4356H1.76221C1.43912 16.4356 1.17627 16.1727 1.17627 15.8496V14.3262C1.17627 14.0031 1.43912 13.7403 1.76221 13.7403C2.35916 13.7403 12.4065 13.7403 13.3464 13.7403C13.4326 13.9845 13.5729 14.2085 13.7616 14.3971C14.4487 15.0842 15.5599 15.0844 16.2472 14.3971L16.9041 13.7403H28.2466C28.5697 13.7403 28.8325 14.0031 28.8325 14.3262V15.8496Z" fill="black"/>
<path d="M15.0044 19.9512C14.6808 19.9512 14.4185 20.2135 14.4185 20.5371V26.748C14.4185 27.0717 14.6808 27.334 15.0044 27.334C15.328 27.334 15.5903 27.0717 15.5903 26.748V20.5371C15.5903 20.2135 15.328 19.9512 15.0044 19.9512Z" fill="black"/>
<path d="M18.52 19.9512C18.1964 19.9512 17.9341 20.2135 17.9341 20.5371V26.748C17.9341 27.0716 18.1964 27.334 18.52 27.334C18.8436 27.334 19.106 27.0717 19.106 26.748V20.5371C19.106 20.2135 18.8436 19.9512 18.52 19.9512Z" fill="black"/>
<path d="M22.0356 19.9512C21.712 19.9512 21.4497 20.2135 21.4497 20.5371V26.748C21.4497 27.0716 21.712 27.334 22.0356 27.334C22.3593 27.334 22.6216 27.0717 22.6216 26.748V20.5371C22.6216 20.2135 22.3593 19.9512 22.0356 19.9512Z" fill="black"/>
<path d="M11.4888 19.9512C11.1652 19.9512 10.9028 20.2135 10.9028 20.5371V26.748C10.9028 27.0717 11.1652 27.334 11.4888 27.334C11.8124 27.334 12.0747 27.0717 12.0747 26.748V20.5371C12.0747 20.2135 11.8124 19.9512 11.4888 19.9512Z" fill="black"/>
<path d="M7.97314 19.9512C7.64953 19.9512 7.38721 20.2135 7.38721 20.5371V26.748C7.38721 27.0717 7.64953 27.334 7.97314 27.334C8.29676 27.334 8.55908 27.0717 8.55908 26.748V20.5371C8.55908 20.2135 8.29676 19.9512 7.97314 19.9512Z" fill="black"/>
<path d="M15.0044 16.4355C14.681 16.4355 14.4185 16.698 14.4185 17.0215C14.4185 17.3449 14.681 17.6074 15.0044 17.6074C15.3278 17.6074 15.5903 17.3449 15.5903 17.0215C15.5903 16.698 15.3278 16.4355 15.0044 16.4355Z" fill="black"/>
</g>
<defs>
<clipPath id="clip0">
<rect width="30" height="30" fill="white" transform="translate(0.00439453 0.850098)"/>
</clipPath>
</defs>
</svg>
