<svg width="25" height="30" viewBox="0 0 25 30" fill="none" xmlns="http://www.w3.org/2000/svg">
<g clip-path="url(#clip0_107:3260)">
<path d="M8.80123 26.4707C8.47842 26.4707 8.21643 26.7327 8.21643 27.0555C8.21643 27.3783 8.47842 27.6403 8.80123 27.6403C9.12403 27.6403 9.38602 27.3783 9.38602 27.0555C9.38602 26.7327 9.12403 26.4707 8.80123 26.4707Z" fill="#212529"/>
<path d="M15.8187 26.4707H11.1403C10.8174 26.4707 10.5555 26.7326 10.5555 27.0555C10.5555 27.3784 10.8174 27.6403 11.1403 27.6403H15.8187C16.1416 27.6403 16.4035 27.3784 16.4035 27.0555C16.4035 26.7326 16.1416 26.4707 15.8187 26.4707Z" fill="#212529"/>
<path d="M22.8363 2.78662H21.0348C21.066 2.08522 21.0819 1.36019 21.0819 0.622881C21.0819 0.299957 20.8201 0.0380859 20.4971 0.0380859H4.12286C3.79994 0.0380859 3.53807 0.299957 3.53807 0.622881C3.53807 1.36013 3.55398 2.08516 3.5852 2.78662H1.78368C0.816314 2.78662 0.0292969 3.56709 0.0292969 4.52639V4.98955C0.0292969 9.64692 1.84035 11.6882 6.09392 13.1436C7.22596 14.9738 8.71918 16.1202 10.5405 16.559C10.4791 18.0888 10.3743 19.5255 9.65345 20.6404C8.35538 20.7812 7.31023 21.7749 7.09035 23.0479C6.38713 23.2766 5.87725 23.938 5.87725 24.7164V29.3948C5.87725 29.7177 6.13912 29.9796 6.46205 29.9796H18.158C18.4809 29.9796 18.7427 29.7177 18.7427 29.3948V24.7164C18.7427 23.938 18.2329 23.2766 17.5297 23.0479C17.3098 21.7749 16.2646 20.7812 14.9665 20.6404C14.2457 19.5255 14.1409 18.0888 14.0795 16.559C15.902 16.1198 17.3952 14.9729 18.5269 13.1423C22.7719 11.6897 24.5907 9.65206 24.5907 4.98721V4.52639C24.5907 3.56709 23.8037 2.78662 22.8363 2.78662ZM1.19889 4.98955V4.52639C1.19889 4.20662 1.45579 3.95621 1.78368 3.95621H3.65368C3.87783 7.03159 4.4262 9.58896 5.28883 11.5869C2.22433 10.2802 1.19889 8.52744 1.19889 4.98955ZM16.9884 24.1317C17.3108 24.1317 17.5732 24.394 17.5732 24.7164V28.81H7.04684V24.7164C7.04684 24.394 7.30918 24.1317 7.63164 24.1317H16.9884ZM14.6486 21.7924C14.6489 21.7924 14.6492 21.7925 14.6496 21.7925C14.6498 21.7925 14.6501 21.7925 14.6503 21.7925C15.4122 21.793 16.0617 22.2818 16.303 22.9621H8.31702C8.5583 22.2818 9.20778 21.793 9.96965 21.7925C9.96988 21.7925 9.97012 21.7925 9.97035 21.7925C9.9707 21.7925 9.97099 21.7924 9.97134 21.7924H14.6486ZM10.993 20.6229C11.5392 19.4341 11.6467 18.0819 11.7036 16.7402C11.9025 16.7552 12.1049 16.7632 12.31 16.7632C12.5151 16.7632 12.7175 16.7552 12.9164 16.7402C12.9733 18.082 13.0808 19.4341 13.627 20.6229H10.993ZM17.6751 12.2891C16.475 14.3637 14.7357 15.5936 12.31 15.5936C9.8845 15.5936 8.14591 14.3641 6.94538 12.2901C5.74006 10.2081 5.01298 7.19551 4.78444 3.33598C4.74421 2.65095 4.71965 1.93744 4.71111 1.20768H19.9089C19.9004 1.93738 19.8758 2.65089 19.8356 3.33575C19.6071 7.1944 18.8802 10.2067 17.6751 12.2891ZM23.4211 4.98721C23.4211 8.52592 22.3957 10.279 19.3315 11.5857C20.1939 9.58785 20.7421 7.03089 20.9663 3.95621H22.8363C23.1642 3.95621 23.4211 4.20662 23.4211 4.52639V4.98721Z" fill="#212529"/>
<path d="M16.2029 6.81187C16.1341 6.60017 15.9511 6.44584 15.7308 6.4138L13.7293 6.12298L12.8343 4.30918C12.7358 4.10953 12.5325 3.98315 12.3099 3.98315C12.0872 3.98315 11.8839 4.10953 11.7854 4.30918L10.8904 6.12298L8.88886 6.4138C8.66857 6.44584 8.48559 6.60017 8.41681 6.81187C8.34804 7.02351 8.40541 7.25596 8.56477 7.41134L10.0131 8.82304L9.67102 10.8165C9.63331 11.0359 9.72348 11.2577 9.9036 11.3885C10.0838 11.5193 10.3225 11.5364 10.5195 11.433L12.3099 10.4919L14.1003 11.433C14.2989 11.5374 14.5376 11.5183 14.7162 11.3885C14.8963 11.2577 14.9865 11.0359 14.9488 10.8165L14.6067 8.82304L16.0549 7.41134C16.2144 7.25596 16.2717 7.02351 16.2029 6.81187ZM13.5701 8.20017C13.4323 8.33456 13.3693 8.52813 13.402 8.71789L13.5956 9.84643L12.582 9.31362C12.4968 9.26883 12.4034 9.24649 12.3099 9.24649C12.2165 9.24649 12.123 9.26889 12.0378 9.31362L11.0242 9.84643L11.2179 8.71789C11.2505 8.52818 11.1875 8.33456 11.0497 8.20017L10.2298 7.40093L11.3631 7.23625C11.5535 7.20853 11.7182 7.08889 11.8034 6.91625L12.3099 5.88965L12.8165 6.91631C12.9016 7.08894 13.0663 7.20859 13.2568 7.23631L14.39 7.40093L13.5701 8.20017Z" fill="#212529"/>
</g>
<defs>
<clipPath id="clip0_107:3260">
<rect width="24.6199" height="30" fill="white"/>
</clipPath>
</defs>
</svg>
