<svg width="30" height="30" viewBox="0 0 30 30" fill="none" xmlns="http://www.w3.org/2000/svg">
<g clip-path="url(#clip0_107:3362)">
<path d="M23.63 11.3126C23.4014 11.084 23.0311 11.084 22.8025 11.3126C22.5744 11.5407 22.5744 11.9109 22.8025 12.1396C23.0311 12.3676 23.4014 12.3676 23.63 12.1396C23.8581 11.9109 23.8581 11.5407 23.63 11.3126Z" fill="#212529"/>
<path d="M12.1007 22.8412C11.8726 22.6125 11.5024 22.6125 11.2737 22.8412C11.0456 23.0692 11.0456 23.4401 11.2737 23.6681C11.5024 23.8968 11.8726 23.8968 12.1007 23.6681C12.3293 23.44 12.3293 23.0692 12.1007 22.8412Z" fill="#212529"/>
<path d="M18.6673 16.2746C17.9817 15.5889 16.872 15.5888 16.1863 16.2746L14.1686 18.2921L11.6874 15.8109L13.7055 13.7928C14.3818 13.1147 14.3989 12.0081 13.705 11.3123C13.0209 10.6284 11.9079 10.6283 11.224 11.3123L9.20643 13.3299L8.79298 12.9164C8.10876 12.2306 6.99637 12.2295 6.3114 12.916C5.77222 13.4552 5.6583 14.2607 5.969 14.9128L4.65754 16.2243C2.61853 18.2632 2.20292 21.423 3.58947 23.909L0.171221 27.3273C-0.0570833 27.5557 -0.0570833 27.926 0.171279 28.1544L1.82514 29.8082C2.05362 30.0366 2.42379 30.0365 2.65227 29.8082L6.06964 26.3909C8.56034 27.7808 11.7205 27.3568 13.7553 25.322L15.066 24.0114C15.7076 24.3186 16.514 24.2164 17.0637 23.6682C17.7477 22.9841 17.7477 21.8712 17.0637 21.1872L16.6497 20.7733L18.6668 18.7562C19.3539 18.0704 19.3524 16.9581 18.6673 16.2746ZM12.051 12.1394C12.279 11.9115 12.6499 11.9115 12.8774 12.1389C13.1078 12.3698 13.1055 12.7381 12.8779 12.9662L10.8603 14.9838L10.0334 14.157L12.051 12.1394ZM2.23871 28.5677L1.41186 27.7408L4.26309 24.8896C4.38812 25.0395 4.51958 25.1841 4.65742 25.3219C4.79531 25.4598 4.93993 25.5913 5.08988 25.7164L2.23871 28.5677ZM12.9282 24.4949C10.907 26.516 7.56374 26.5744 5.48461 24.4948C3.40953 22.4203 3.45912 19.0769 5.48461 17.0514L6.72491 15.811L14.1685 23.2546L12.9282 24.4949ZM16.2372 22.8406C16.0074 23.0698 15.6381 23.07 15.4092 22.8412L7.13847 14.5704C6.91034 14.3423 6.91034 13.9711 7.13894 13.7426C7.36321 13.5177 7.7342 13.5112 7.96531 13.743L16.2366 22.0143C16.4645 22.2422 16.4645 22.6132 16.2372 22.8406ZM17.8401 17.9285L15.8225 19.9461L14.9957 19.1192L17.0133 17.1016C17.2396 16.8755 17.6092 16.8708 17.8406 17.1022C18.0679 17.3288 18.0696 17.6996 17.8401 17.9285Z" fill="#212529"/>
<path d="M10.4468 21.1871L7.13848 17.8787C6.91006 17.6504 6.53983 17.6504 6.31135 17.8787C6.08299 18.1071 6.08299 18.4775 6.31135 18.7059L9.61976 22.0142C9.73397 22.1284 9.88362 22.1855 10.0333 22.1855C10.1829 22.1855 10.3326 22.1284 10.4468 22.0142C10.6753 21.7859 10.6753 21.4155 10.4468 21.1871Z" fill="#212529"/>
<path d="M29.7702 1.86319L28.1163 0.20927C27.888 -0.018917 27.5177 -0.0190339 27.2892 0.20927L23.8701 3.62787C21.385 2.24126 18.2253 2.65652 16.1863 4.69541L14.8742 6.00705C14.2222 5.69658 13.4168 5.81056 12.8772 6.34991C12.1923 7.03664 12.1918 8.14477 12.8778 8.83091L21.1485 17.1015C21.8321 17.7851 22.9452 17.7855 23.6295 17.1021C24.1813 16.5517 24.2788 15.7421 23.9733 15.1042L25.2839 13.7932C27.3229 11.7542 27.7382 8.59442 26.3515 6.10927L29.7701 2.69015C29.9985 2.46184 29.9985 2.09161 29.7702 1.86319ZM22.8033 16.2744C22.5748 16.5025 22.2035 16.5025 21.9756 16.2746L13.705 8.00401C13.4767 7.77564 13.476 7.40611 13.705 7.17658C13.9328 6.94863 14.3039 6.94857 14.5318 7.17658L22.803 15.4478C22.8032 15.448 22.8034 15.4482 22.8036 15.4483C23.0315 15.6756 23.0319 16.0463 22.8033 16.2744ZM24.4568 12.9662L23.2165 14.207L15.7725 6.76301L17.0134 5.5226C19.035 3.50091 22.379 3.44465 24.4569 5.5226C26.5352 7.60085 26.4783 10.9448 24.4568 12.9662ZM25.6785 5.12839C25.5535 4.97828 25.422 4.83354 25.284 4.69553C25.1461 4.55757 25.0013 4.42605 24.8512 4.30102L27.7028 1.44991L28.5297 2.27687L25.6785 5.12839Z" fill="#212529"/>
<path d="M21.9756 9.65775L18.6673 6.34945C18.4389 6.12115 18.0687 6.12115 17.8402 6.34945C17.6118 6.57781 17.6118 6.94816 17.8402 7.17658L21.1485 10.4849C21.377 10.7132 21.7472 10.7132 21.9756 10.4849C22.204 10.2565 22.204 9.88623 21.9756 9.65775Z" fill="#212529"/>
</g>
<defs>
<clipPath id="clip0_107:3362">
<rect width="29.9415" height="30" fill="white"/>
</clipPath>
</defs>
</svg>
